<?xml version="1.0" encoding="UTF-8" standalone="no"?>
<svg width="11px" height="11px" viewBox="0 0 11 11" version="1.1" xmlns="http://www.w3.org/2000/svg" xmlns:xlink="http://www.w3.org/1999/xlink" xmlns:sketch="http://www.bohemiancoding.com/sketch/ns">
    <!-- Generator: Sketch 3.2.2 (9983) - http://www.bohemiancoding.com/sketch -->
    <title>ic_airplanemode_on_48px</title>
    <desc>Created with Sketch.</desc>
    <defs></defs>
    <g id="Site" stroke="none" stroke-width="1" fill="none" fill-rule="evenodd" sketch:type="MSPage">
        <g id="Artboard-2" sketch:type="MSArtboardGroup" transform="translate(-235.000000, -837.000000)">
            <g id="Miscellaneous" sketch:type="MSLayerGroup" transform="translate(179.000000, 791.000000)">
                <g id="ic_airplanemode_on_48px" transform="translate(55.000000, 45.000000)" sketch:type="MSShapeGroup">
                    <path d="M11.375,8.66666667 L11.375,7.58333333 L7.04166667,4.875 L7.04166667,1.89583333 C7.04166667,1.44625 6.67875,1.08333333 6.22916667,1.08333333 C5.77958333,1.08333333 5.41666667,1.44625 5.41666667,1.89583333 L5.41666667,4.875 L1.08333333,7.58333333 L1.08333333,8.66666667 L5.41666667,7.3125 L5.41666667,10.2916667 L4.33333333,11.1041667 L4.33333333,11.9166667 L6.22916667,11.375 L8.125,11.9166667 L8.125,11.1041667 L7.04166667,10.2916667 L7.04166667,7.3125 L11.375,8.66666667 L11.375,8.66666667 Z" id="Shape" fill="#737373"></path>
                    <path d="M0,0 L13,0 L13,13 L0,13 L0,0 Z" id="Shape"></path>
                </g>
            </g>
        </g>
    </g>
</svg>