<?xml version="1.0" encoding="UTF-8" standalone="no"?>
<svg width="12px" height="12px" viewBox="0 0 12 12" version="1.1" xmlns="http://www.w3.org/2000/svg" xmlns:xlink="http://www.w3.org/1999/xlink" xmlns:sketch="http://www.bohemiancoding.com/sketch/ns">
    <!-- Generator: Sketch 3.2.2 (9983) - http://www.bohemiancoding.com/sketch -->
    <title>Linkedin_icon</title>
    <desc>Created with Sketch.</desc>
    <defs></defs>
    <g id="Site" stroke="none" stroke-width="1" fill="none" fill-rule="evenodd" sketch:type="MSPage">
        <g id="Artboard-2" sketch:type="MSArtboardGroup" transform="translate(-197.000000, -700.000000)">
            <g id="Contact" sketch:type="MSLayerGroup" transform="translate(179.000000, 226.000000)">
                <g id="Linkedin" transform="translate(0.000000, 459.000000)" sketch:type="MSShapeGroup">
                    <g id="Linkedin_icon" transform="translate(18.000000, 15.000000)">
                        <g id="layer1" transform="translate(0.018127, 0.033215)" fill="#737373">
                            <path d="M10.1093165,0.0429873418 L1.80379747,0.0429873418 C0.811443038,0.0429873418 0.00698734177,0.847443038 0.00698734177,1.83979747 L0.00698734177,10.1443544 C0.00698734177,11.1367089 0.811443038,11.9411139 1.80379747,11.9411139 L10.1092658,11.9411139 C11.1016203,11.9411139 11.9060759,11.1366582 11.9060759,10.1443544 L11.9060759,1.8398481 C11.9061266,0.847493671 11.1016203,0.0429873418 10.1093165,0.0429873418 L10.1093165,0.0429873418 Z" id="rect1942"></path>
                        </g>
                        <g id="layer1_1_" transform="translate(1.642938, 2.077860)" fill="#FFFFFF">
                            <g id="g3019" transform="translate(4.252635, 3.999703) scale(1, -1) translate(-4.252635, -3.999703) translate(0.048362, 0.001775)">
                                <path d="M1.93422371,0.0116584761 L1.93422371,5.39245786 L0.145885709,5.39245786 L0.145885709,0.0116584761 L1.93422371,0.0116584761 L1.93422371,0.0116584761 Z M1.04039002,6.1271482 C1.66360263,6.1271482 2.05209813,6.54035348 2.05209813,7.0567827 C2.04054283,7.58466405 1.66360263,7.9864172 1.05210008,7.9864172 C0.440081678,7.9864172 0.0402372182,7.58466405 0.0402372182,7.0567827 C0.0402372182,6.54035348 0.428216857,6.1271482 1.02857679,6.1271482 L1.04039002,6.1271482 L1.04039002,6.1271482 Z" id="path28_1_"></path>
                                <path d="M2.92395611,0.0116584761 L4.71260363,0.0116584761 L4.71260363,3.01650171 C4.71260363,3.177399 4.72426211,3.33814153 4.77156663,3.45302394 C4.90053208,3.774509 5.19503756,4.10718826 5.68897521,4.10718826 C6.33622697,4.10718826 6.59493165,3.61361171 6.59493165,2.89037351 L6.59493165,0.0116584761 L8.38321807,0.0116584761 L8.38321807,3.09702774 C8.38321807,4.74979727 7.50109444,5.51879241 6.32425898,5.51879241 C5.35954588,5.51879241 4.93581702,4.97971686 4.70053247,4.61237169 L4.71260363,4.61237169 L4.71260363,5.39245786 L2.92395611,5.39245786 C2.94768575,4.88763553 2.92395611,0.0116584761 2.92395611,0.0116584761 L2.92395611,0.0116584761 L2.92395611,0.0116584761 Z" id="path30_1_"></path>
                            </g>
                        </g>
                    </g>
                </g>
            </g>
        </g>
    </g>
</svg>