<?xml version="1.0" encoding="UTF-8" standalone="no"?>
<svg width="12px" height="13px" viewBox="0 0 12 13" version="1.1" xmlns="http://www.w3.org/2000/svg" xmlns:xlink="http://www.w3.org/1999/xlink" xmlns:sketch="http://www.bohemiancoding.com/sketch/ns">
    <!-- Generator: Sketch 3.2.2 (9983) - http://www.bohemiancoding.com/sketch -->
    <title>Fill 4</title>
    <desc>Created with Sketch.</desc>
    <defs></defs>
    <g id="Site" stroke="none" stroke-width="1" fill="none" fill-rule="evenodd" sketch:type="MSPage">
        <g id="Artboard-2" sketch:type="MSArtboardGroup" transform="translate(-197.000000, -548.000000)" fill="#737373">
            <g id="Contact" sketch:type="MSLayerGroup" transform="translate(179.000000, 226.000000)">
                <g id="github" transform="translate(0.000000, 308.000000)" sketch:type="MSShapeGroup">
                    <path d="M18.2093023,20.6456933 C18.2093023,23.2503666 19.8983408,25.4598331 22.2409906,26.2393893 C22.535948,26.293676 22.6434356,26.1116347 22.6434356,25.9552892 C22.6434356,25.8155916 22.6383688,25.4446328 22.6354736,24.9527958 C20.9956549,25.3089162 20.649668,24.1623822 20.649668,24.1623822 C20.381492,23.4812658 19.9949711,23.2999484 19.9949711,23.2999484 C19.4597047,22.9344183 20.0355051,22.9416565 20.0355051,22.9416565 C20.6272296,22.9832763 20.938473,23.549305 20.938473,23.549305 C21.4643296,24.4501014 22.3184395,24.1898875 22.6542929,24.0389706 C22.7078558,23.6582402 22.8602203,23.3983881 23.0285089,23.2510904 C21.7194769,23.102345 20.3431294,22.5963934 20.3431294,20.3373451 C20.3431294,19.6938674 20.5729429,19.1672869 20.9500541,18.7554322 C20.8892531,18.6063249 20.6869449,18.0066384 21.0079599,17.195234 C21.0079599,17.195234 21.5026922,17.036717 22.6289592,17.7996254 C23.0990815,17.6686136 23.6035854,17.6034696 24.1048321,17.6009362 C24.6057169,17.6034696 25.1098589,17.6686136 25.5807051,17.7996254 C26.7062482,17.036717 27.2002567,17.195234 27.2002567,17.195234 C27.5219955,18.0066384 27.3196873,18.6063249 27.2592482,18.7554322 C27.6370832,19.1672869 27.8650872,19.6938674 27.8650872,20.3373451 C27.8650872,22.602184 26.4865682,23.1005354 25.1735552,23.2463855 C25.3849112,23.4284268 25.5734669,23.7881663 25.5734669,24.338271 C25.5734669,25.1261511 25.5662286,25.7620287 25.5662286,25.9552892 C25.5662286,26.1130824 25.6726305,26.2965712 25.9715689,26.2390274 C28.3124091,25.4576616 30,23.2496427 30,20.6456933 C30,17.3895802 27.3602213,14.7501635 24.1041083,14.7501635 C20.849081,14.7501635 18.2093023,17.3895802 18.2093023,20.6456933 Z" id="Fill-4"></path>
                </g>
            </g>
        </g>
    </g>
</svg>