<?xml version="1.0" encoding="UTF-8" standalone="no"?>
<svg width="11px" height="11px" viewBox="0 0 11 11" version="1.1" xmlns="http://www.w3.org/2000/svg" xmlns:xlink="http://www.w3.org/1999/xlink" xmlns:sketch="http://www.bohemiancoding.com/sketch/ns">
    <!-- Generator: Sketch 3.2.2 (9983) - http://www.bohemiancoding.com/sketch -->
    <title>ic_language_48px</title>
    <desc>Created with Sketch.</desc>
    <defs></defs>
    <g id="Site" stroke="none" stroke-width="1" fill="none" fill-rule="evenodd" sketch:type="MSPage">
        <g id="Artboard-2" sketch:type="MSArtboardGroup" transform="translate(-197.000000, -966.000000)">
            <g id="Language" sketch:type="MSLayerGroup" transform="translate(179.000000, 945.000000)">
                <g id="ic_language_48px" transform="translate(17.000000, 20.000000)" sketch:type="MSShapeGroup">
                    <path d="M0,0 L13,0 L13,13 L0,13 L0,0 Z" id="Shape"></path>
                    <path d="M6.49729167,1.08333333 C3.50458333,1.08333333 1.08333333,3.50729167 1.08333333,6.5 C1.08333333,9.49270833 3.50458333,11.9166667 6.49729167,11.9166667 C9.49,11.9166667 11.9166667,9.49270833 11.9166667,6.5 C11.9166667,3.50729167 9.49,1.08333333 6.49729167,1.08333333 L6.49729167,1.08333333 Z M10.2483333,4.33333333 L8.65041667,4.33333333 C8.474375,3.65625 8.22791667,3.00625 7.90291667,2.405 C8.89958333,2.74625 9.72833333,3.436875 10.2483333,4.33333333 L10.2483333,4.33333333 Z M6.5,2.185625 C6.95229167,2.835625 7.304375,3.55875 7.53458333,4.33333333 L5.46541667,4.33333333 C5.695625,3.55875 6.04770833,2.835625 6.5,2.185625 L6.5,2.185625 Z M2.3075,7.58333333 C2.218125,7.23666667 2.16666667,6.87375 2.16666667,6.5 C2.16666667,6.12625 2.218125,5.76333333 2.3075,5.41666667 L4.135625,5.41666667 C4.09229167,5.77145833 4.0625,6.13166667 4.0625,6.5 C4.0625,6.86833333 4.09229167,7.22854167 4.13833333,7.58333333 L2.3075,7.58333333 L2.3075,7.58333333 Z M2.74895833,8.66666667 L4.346875,8.66666667 C4.52291667,9.34375 4.769375,9.99375 5.094375,10.5977083 C4.09770833,10.2564583 3.26895833,9.563125 2.74895833,8.66666667 L2.74895833,8.66666667 Z M4.346875,4.33333333 L2.74895833,4.33333333 C3.26895833,3.436875 4.09770833,2.74354167 5.094375,2.40229167 C4.769375,3.00625 4.52291667,3.65625 4.346875,4.33333333 L4.346875,4.33333333 Z M6.5,10.814375 C6.05041667,10.164375 5.69833333,9.44125 5.46541667,8.66666667 L7.53458333,8.66666667 C7.30166667,9.44125 6.94958333,10.164375 6.5,10.814375 L6.5,10.814375 Z M7.7675,7.58333333 L5.2325,7.58333333 C5.18104167,7.22854167 5.14583333,6.86833333 5.14583333,6.5 C5.14583333,6.13166667 5.18104167,5.77145833 5.2325,5.41666667 L7.7675,5.41666667 C7.81895833,5.77145833 7.85416667,6.13166667 7.85416667,6.5 C7.85416667,6.86833333 7.81895833,7.22854167 7.7675,7.58333333 L7.7675,7.58333333 Z M7.905625,10.595 C8.230625,9.99104167 8.47708333,9.34375 8.653125,8.66666667 L10.2510417,8.66666667 C9.72833333,9.563125 8.89958333,10.25375 7.905625,10.595 L7.905625,10.595 Z M8.86166667,7.58333333 C8.905,7.22854167 8.9375,6.86833333 8.9375,6.5 C8.9375,6.13166667 8.90770833,5.77145833 8.86166667,5.41666667 L10.6897917,5.41666667 C10.7791667,5.76333333 10.8333333,6.12625 10.8333333,6.5 C10.8333333,6.87375 10.781875,7.23666667 10.6897917,7.58333333 L8.86166667,7.58333333 L8.86166667,7.58333333 Z" id="Shape" fill="#737373"></path>
                </g>
            </g>
        </g>
    </g>
</svg>