<?xml version="1.0" encoding="UTF-8" standalone="no"?>
<svg width="13px" height="15px" viewBox="0 0 13 15" version="1.1" xmlns="http://www.w3.org/2000/svg" xmlns:xlink="http://www.w3.org/1999/xlink" xmlns:sketch="http://www.bohemiancoding.com/sketch/ns">
    <!-- Generator: Sketch 3.2.2 (9983) - http://www.bohemiancoding.com/sketch -->
    <title>Viadeo_Logo</title>
    <desc>Created with Sketch.</desc>
    <defs></defs>
    <g id="Site" stroke="none" stroke-width="1" fill="none" fill-rule="evenodd" sketch:type="MSPage">
        <g id="Artboard-2" sketch:type="MSArtboardGroup" transform="translate(-197.000000, -742.000000)">
            <g id="Contact" sketch:type="MSLayerGroup" transform="translate(179.000000, 226.000000)">
                <g id="Viadeo" transform="translate(0.000000, 502.000000)" sketch:type="MSShapeGroup">
                    <g id="Viadeo_Logo" transform="translate(17.000000, 13.000000)">
                        <g id="layer1" transform="translate(0.720194, 0.321479)">
                            <g id="g3145">
                                <g id="g3441" transform="translate(7.408924, 7.328521) scale(1, -1) translate(-7.408924, -7.328521) translate(5.203041, 0.528521)" fill="#737373">
                                    <path d="M1.32352941,12.75 C1.32352941,12.75 2.97463235,11.696 3.25808824,8.7975 C3.25808824,8.7975 3.81617647,1.836 0.0772058824,0.47175 C0.0772058824,0.47175 0.4125,0.41225 0.788602941,0.4281875 C0.788602941,0.4281875 5.41213235,3.2374375 3.29117647,8.69125 C3.29117647,8.69125 2.65698529,10.5941875 1.32352941,12.75" id="path3443"></path>
                                </g>
                                <g id="g3445" transform="translate(10.594218, 4.008209) scale(1, -1) translate(-10.594218, -4.008209) translate(7.836865, 0.820709)" fill="#F49D22">
                                    <path d="M1.10294118,1.0625 C1.10294118,1.0625 0.241544118,2.346 1.33566176,3.40425 C1.33566176,3.40425 1.71838235,3.8111875 2.81029412,4.0789375 C2.81029412,4.0789375 3.90330882,4.303125 4.49448529,5.5111875 C4.49448529,5.5111875 5.71764706,3.8643125 4.96544118,1.6968125 C4.96544118,1.6968125 4.59264706,0.720375 3.81617647,0.2751875 C3.22941176,-0.0605625 2.34044118,-0.1668125 1.41176471,0.70975 C1.41176471,0.70975 4.22095588,2.193 4.32683824,3.448875 C4.32683824,3.448875 3.46323529,1.5799375 1.10294118,1.0625" id="path3447"></path>
                                </g>
                                <g id="g3449" transform="translate(10.483924, 4.220709) scale(1, -1) translate(-10.483924, -4.220709) translate(7.836865, 1.245709)" fill="#737373">
                                    <path d="M1.10294118,1.0625 C1.10294118,1.0625 0.241544118,2.346 1.33566176,3.40425 C1.33566176,3.40425 1.71838235,3.8111875 2.81029412,4.0789375 C2.81029412,4.0789375 3.90330882,4.303125 4.49448529,5.5111875 C4.49448529,5.5111875 5.71764706,3.8643125 4.96544118,1.6968125 C4.96544118,1.6968125 4.59264706,0.720375 3.81617647,0.2751875 C3.22941176,-0.0605625 2.34044118,-0.1668125 1.41176471,0.70975 C1.41176471,0.70975 4.22095588,2.193 4.32683824,3.448875 C4.32683824,3.448875 3.46323529,1.5799375 1.10294118,1.0625" id="path3451"></path>
                                </g>
                                <g id="g3457" transform="translate(6.126865, 9.816046) scale(1, -1) translate(-6.126865, -9.816046) translate(0.832747, 4.291046)" fill="#737373">
                                    <path d="M8.32720588,3.44675 C7.99632353,2.8698125 7.55073529,2.4235625 6.98713235,2.110125 C6.42463235,1.7966875 5.80698529,1.6394375 5.13419118,1.6394375 C4.46029412,1.6394375 3.84264706,1.7966875 3.27904412,2.110125 C2.71654412,2.4235625 2.26985294,2.8698125 1.93897059,3.44675 C1.60919118,4.022625 1.44264706,4.64525 1.44264706,5.3125 C1.44264706,6.347375 1.80551471,7.2303125 2.53014706,7.9591875 C3.25588235,8.689125 4.12389706,9.054625 5.13419118,9.054625 C5.61286765,9.054625 6.06176471,8.969625 6.47977941,8.8028125 C6.52058824,9.224625 6.675,9.6188125 6.84485294,9.9396875 C6.31985294,10.1224375 5.75183824,10.2159375 5.13860294,10.2159375 C3.67830882,10.2159375 2.47058824,9.6985 1.51433824,8.663625 C0.645220588,7.724375 0.211764706,6.6161875 0.211764706,5.338 C0.211764706,4.0491875 0.670588235,2.921875 1.58823529,1.957125 C2.50588235,0.9934375 3.68933824,0.5110625 5.13860294,0.5110625 C6.57904412,0.5110625 7.75919118,0.9934375 8.67794118,1.957125 C9.59558824,2.921875 10.0544118,4.0491875 10.0544118,5.338 C10.0544118,6.028625 9.92757353,6.6671875 9.67720588,7.2579375 C9.25588235,7.00825 8.85441176,6.8775625 8.52352941,6.810625 C8.72205882,6.35375 8.82352941,5.854375 8.82352941,5.3125 C8.82352941,4.64525 8.65808824,4.022625 8.32720588,3.44675 Z" id="path3459"></path>
                                </g>
                            </g>
                        </g>
                    </g>
                </g>
            </g>
        </g>
    </g>
</svg>