<?xml version="1.0" encoding="UTF-8" standalone="no"?>
<svg width="11px" height="11px" viewBox="0 0 11 11" version="1.1" xmlns="http://www.w3.org/2000/svg" xmlns:xlink="http://www.w3.org/1999/xlink" xmlns:sketch="http://www.bohemiancoding.com/sketch/ns">
    <!-- Generator: Sketch 3.2.2 (9983) - http://www.bohemiancoding.com/sketch -->
    <title>ic_public_48px</title>
    <desc>Created with Sketch.</desc>
    <defs></defs>
    <g id="Site" stroke="none" stroke-width="1" fill="none" fill-rule="evenodd" sketch:type="MSPage">
        <g id="Artboard-2" sketch:type="MSArtboardGroup" transform="translate(-197.000000, -496.000000)">
            <g id="Contact" sketch:type="MSLayerGroup" transform="translate(179.000000, 226.000000)">
                <g id="web" transform="translate(0.000000, 254.000000)" sketch:type="MSShapeGroup">
                    <g id="ic_public_48px" transform="translate(17.000000, 15.000000)">
                        <path d="M0,0 L13,0 L13,13 L0,13 L0,0 Z" id="Shape"></path>
                        <path d="M6.5,1.08333333 C3.50729167,1.08333333 1.08333333,3.50729167 1.08333333,6.5 C1.08333333,9.49270833 3.50729167,11.9166667 6.5,11.9166667 C9.49270833,11.9166667 11.9166667,9.49270833 11.9166667,6.5 C11.9166667,3.50729167 9.49270833,1.08333333 6.5,1.08333333 L6.5,1.08333333 Z M5.95833333,10.7954167 C3.82145833,10.53 2.16666667,8.71 2.16666667,6.5 C2.16666667,6.166875 2.20729167,5.841875 2.28041667,5.53041667 L4.875,8.125 L4.875,8.66666667 C4.875,9.26520833 5.35979167,9.75 5.95833333,9.75 L5.95833333,10.7954167 L5.95833333,10.7954167 Z M9.693125,9.42229167 C9.555,8.98354167 9.14875,8.66666667 8.66666667,8.66666667 L8.125,8.66666667 L8.125,7.04166667 C8.125,6.74375 7.88125,6.5 7.58333333,6.5 L4.33333333,6.5 L4.33333333,5.41666667 L5.41666667,5.41666667 C5.71458333,5.41666667 5.95833333,5.17291667 5.95833333,4.875 L5.95833333,3.79166667 L7.04166667,3.79166667 C7.64020833,3.79166667 8.125,3.306875 8.125,2.70833333 L8.125,2.48354167 C9.71208333,3.12541667 10.8333333,4.68 10.8333333,6.5 C10.8333333,7.62666667 10.4,8.65041667 9.693125,9.42229167 L9.693125,9.42229167 Z" id="Shape" fill="#737373"></path>
                    </g>
                </g>
            </g>
        </g>
    </g>
</svg>