<?xml version="1.0" encoding="UTF-8" standalone="no"?>
<svg width="12px" height="12px" viewBox="0 0 12 12" version="1.1" xmlns="http://www.w3.org/2000/svg" xmlns:xlink="http://www.w3.org/1999/xlink" xmlns:sketch="http://www.bohemiancoding.com/sketch/ns">
    <!-- Generator: Sketch 3.2.2 (9983) - http://www.bohemiancoding.com/sketch -->
    <title>Google_plus</title>
    <desc>Created with Sketch.</desc>
    <defs></defs>
    <g id="Site" stroke="none" stroke-width="1" fill="none" fill-rule="evenodd" sketch:type="MSPage">
        <g id="Artboard-2" sketch:type="MSArtboardGroup" transform="translate(-197.000000, -646.000000)">
            <g id="Contact" sketch:type="MSLayerGroup" transform="translate(179.000000, 226.000000)">
                <g id="google-plus" transform="translate(0.000000, 405.000000)" sketch:type="MSShapeGroup">
                    <g id="Google_plus" transform="translate(18.000000, 15.000000)">
                        <g id="Group">
                            <path d="M11.2743394,0.374549929 L0.725749677,0.374549929 C0.531747093,0.374549929 0.374637972,0.535253635 0.374637972,0.733512602 L0.374637972,11.2659405 C0.374637972,11.4645641 0.531747093,11.6252678 0.725749677,11.6252678 L11.2743394,11.6252678 C11.468342,11.6252678 11.6254511,11.4644729 11.6254511,11.2659405 L11.6254511,0.733603756 C11.6254511,0.535253635 11.4682529,0.374549929 11.2743394,0.374549929 L11.2743394,0.374549929 Z" id="Shape" fill="#737373"></path>
                            <g transform="translate(2.000000, 2.000000)" id="Shape" fill="#FFFFFF">
                                <path d="M4.28071113,4.54892667 L3.9257675,4.26698874 C3.81767143,4.17528827 3.66983024,4.05423636 3.66983024,3.83264209 C3.66983024,3.61013627 3.81767143,3.46866597 3.94599652,3.33767832 C4.35948848,3.00478556 4.77262398,2.65047172 4.77262398,1.90383301 C4.77262398,1.13604667 4.30031636,0.732145299 4.07396516,0.540540541 L4.68431137,0.540540541 L5.32495656,0.128799964 L3.38412868,0.128799964 C2.85157956,0.128799964 2.08412423,0.257691081 1.52225638,0.732145299 C1.09878359,1.10587485 0.892215836,1.62116585 0.892215836,2.08504626 C0.892215836,2.87252176 1.48331328,3.67075338 2.52711313,3.67075338 C2.62567393,3.67075338 2.73350265,3.66081765 2.84204429,3.6505173 C2.79329858,3.77184267 2.74401818,3.8728408 2.74401818,4.04430062 C2.74401818,4.35704845 2.9011273,4.54883551 3.03961146,4.73050453 C2.59608787,4.76167905 1.76812369,4.81190465 1.15777748,5.19566109 C0.576482645,5.5492457 0.399590073,6.06389864 0.399590073,6.42714553 C0.399590073,7.17478693 1.0885354,7.87120004 2.51713229,7.87120004 C4.21120171,7.87120004 5.10805151,6.91235586 5.10805151,5.96317397 C5.10814062,5.26575817 4.71425389,4.92247391 4.28071113,4.54892667 L4.28071113,4.54892667 Z M2.99042018,3.38781277 C2.14293989,3.38781277 1.759034,2.26717105 1.759034,1.59099403 C1.759034,1.32774258 1.80777971,1.0559227 1.97540436,0.843626088 C2.13340463,0.641447518 2.40859065,0.510277563 2.66550818,0.510277563 C3.48251125,0.510277563 3.90625139,1.64094617 3.90625139,2.36816918 C3.90625139,2.55011166 3.88664617,2.87252176 3.66011674,3.10560139 C3.5016709,3.26730778 3.23655483,3.38781277 2.99042018,3.38781277 L2.99042018,3.38781277 Z M3.00013367,7.44806527 C1.94626387,7.44806527 1.26667558,6.93240964 1.26667558,6.21539583 C1.26667558,5.49856433 1.89680524,5.25609589 2.11362117,5.17578962 C2.52711313,5.03349893 3.05921668,5.01362746 3.14797487,5.01362746 C3.24644655,5.01362746 3.29572695,5.01362746 3.37414784,5.0237455 C4.12333467,5.56911718 4.44851401,5.84093706 4.44851401,6.35723076 C4.44851401,6.98245294 3.94599652,7.44806527 3.00013367,7.44806527 L3.00013367,7.44806527 Z"></path>
                                <path d="M6.76825736,3.37240782 L6.76825736,2.36288228 L6.28080025,2.36288228 L6.28080025,3.37240782 L5.29545961,3.37240782 L5.29545961,3.8765781 L6.28080025,3.8765781 L6.28080025,4.89230208 L6.76825736,4.89230208 L6.76825736,3.8765781 L7.75858842,3.8765781 L7.75858842,3.37240782 L6.76825736,3.37240782 Z"></path>
                            </g>
                        </g>
                    </g>
                </g>
            </g>
        </g>
    </g>
</svg>