<?xml version="1.0" encoding="UTF-8" standalone="no"?>
<svg width="11px" height="10px" viewBox="0 0 11 10" version="1.1" xmlns="http://www.w3.org/2000/svg" xmlns:xlink="http://www.w3.org/1999/xlink" xmlns:sketch="http://www.bohemiancoding.com/sketch/ns">
    <!-- Generator: Sketch 3.2.2 (9983) - http://www.bohemiancoding.com/sketch -->
    <title>ic_photo_camera_48px</title>
    <desc>Created with Sketch.</desc>
    <defs></defs>
    <g id="Site" stroke="none" stroke-width="1" fill="none" fill-rule="evenodd" sketch:type="MSPage">
        <g id="Artboard-2" sketch:type="MSArtboardGroup" transform="translate(-235.000000, -883.000000)">
            <g id="Miscellaneous" sketch:type="MSLayerGroup" transform="translate(179.000000, 791.000000)">
                <g id="ic_photo_camera_48px" transform="translate(55.000000, 91.000000)" sketch:type="MSShapeGroup">
                    <circle id="Oval" fill="#737373" cx="6.5" cy="6.5" r="1.73333333"></circle>
                    <path d="M4.875,1.08333333 L3.88375,2.16666667 L2.16666667,2.16666667 C1.568125,2.16666667 1.08333333,2.65145833 1.08333333,3.25 L1.08333333,9.75 C1.08333333,10.3485417 1.568125,10.8333333 2.16666667,10.8333333 L10.8333333,10.8333333 C11.431875,10.8333333 11.9166667,10.3485417 11.9166667,9.75 L11.9166667,3.25 C11.9166667,2.65145833 11.431875,2.16666667 10.8333333,2.16666667 L9.11625,2.16666667 L8.125,1.08333333 L4.875,1.08333333 L4.875,1.08333333 Z M6.5,9.20833333 C5.005,9.20833333 3.79166667,7.995 3.79166667,6.5 C3.79166667,5.005 5.005,3.79166667 6.5,3.79166667 C7.995,3.79166667 9.20833333,5.005 9.20833333,6.5 C9.20833333,7.995 7.995,9.20833333 6.5,9.20833333 L6.5,9.20833333 Z" id="Shape" fill="#737373"></path>
                    <path d="M0,0 L13,0 L13,13 L0,13 L0,0 Z" id="Shape"></path>
                </g>
            </g>
        </g>
    </g>
</svg>