<?xml version="1.0" encoding="UTF-8" standalone="no"?>
<svg width="12px" height="10px" viewBox="0 0 12 10" version="1.1" xmlns="http://www.w3.org/2000/svg" xmlns:xlink="http://www.w3.org/1999/xlink" xmlns:sketch="http://www.bohemiancoding.com/sketch/ns">
    <!-- Generator: Sketch 3.2.2 (9983) - http://www.bohemiancoding.com/sketch -->
    <title>Shape</title>
    <desc>Created with Sketch.</desc>
    <defs></defs>
    <g id="Site" stroke="none" stroke-width="1" fill="none" fill-rule="evenodd" sketch:type="MSPage">
        <g id="Artboard-2" sketch:type="MSArtboardGroup" transform="translate(-197.000000, -603.000000)" fill="#737373">
            <g id="Contact" sketch:type="MSLayerGroup" transform="translate(179.000000, 226.000000)">
                <g id="twitter" transform="translate(0.000000, 362.000000)" sketch:type="MSShapeGroup">
                    <path d="M30,16.846799 C29.5662202,17.0328395 29.0999571,17.1585194 28.6107021,17.2150611 C29.1100971,16.9256268 29.4937074,16.4673084 29.674282,15.9211565 C29.2068398,16.1892167 28.6891692,16.3838068 28.1381309,16.4886826 C27.696923,16.034126 27.068243,15.7501635 26.372474,15.7501635 C25.0365879,15.7501635 23.9534355,16.797268 23.9534355,18.0888357 C23.9534355,18.2721403 23.9748356,18.450657 24.0160441,18.6218211 C22.0056122,18.5242981 20.2232124,17.5931838 19.0301117,16.1782161 C18.821888,16.5236221 18.7025662,16.9253419 18.7025662,17.3539645 C18.7025662,18.1653836 19.1296252,18.8812176 19.7787031,19.3006066 C19.382182,19.2884661 19.0091833,19.1832484 18.6830526,19.0080945 C18.6828167,19.0178411 18.6828167,19.0276447 18.6828167,19.0375053 C18.6828167,20.1706194 19.5166549,21.115869 20.6232708,21.3307503 C20.420294,21.3842142 20.2065876,21.41277 19.9859836,21.41277 C19.8301106,21.41277 19.6786001,21.3980646 19.5308627,21.3708197 C19.8387178,22.2999391 20.73204,22.9761597 21.7906088,22.9949689 C20.962725,23.6222855 19.9197199,23.9961333 18.7863391,23.9961333 C18.5910851,23.9961333 18.398543,23.9850758 18.2093023,23.9634167 C19.2798387,24.6270408 20.5513476,25.0142831 21.9174178,25.0142831 C26.3668144,25.0142831 28.8000017,21.4505595 28.8000017,18.3599737 C28.8000017,18.2585748 28.7976436,18.1577459 28.7929863,18.057373 C29.2656164,17.7276983 29.6756969,17.315776 30,16.846799 L30,16.846799 Z" id="Shape"></path>
                </g>
            </g>
        </g>
    </g>
</svg>